<svg xmlns="http://www.w3.org/2000/svg" id="b982bec5-b5e3-4679-8fe1-e58d73638aca" data-name="Layer 1" width="1153.08838" height="830.28275" viewBox="0 0 1153.08838 830.28275"><title>social_sharing</title><polygon points="829.114 674.5 759.114 606.5 719.114 637.5 640.114 732.5 649.114 746.5 745.114 681.5 810.114 766.5 872.114 735.5 829.114 674.5" fill="#2f2e41"/><polygon points="829.114 674.5 759.114 606.5 719.114 637.5 640.114 732.5 649.114 746.5 745.114 681.5 810.114 766.5 872.114 735.5 829.114 674.5" opacity="0.1"/><path d="M858.56958,754.35863l-9,7-73-25-17-7-34,7s0-28,32-27l33,8,39,3Z" transform="translate(-23.45581 -34.85863)" fill="#ffb9b9"/><polygon points="900.114 793.5 878.114 807.5 852.114 807.5 731.114 762.5 554.114 794.5 549.114 756.5 711.114 685.5 853.114 732.5 900.114 793.5" fill="#2f2e41"/><path d="M781.56958,650.35863l-15,3-3.26873-3.81352a20.20619,20.20619,0,0,1-2.73128-22.18647h0l42-55s12-27,31-16-16,29-16,29l-21,33,2,17Z" transform="translate(-23.45581 -34.85863)" fill="#ffb9b9"/><circle cx="853.11377" cy="511.5" r="39" fill="#ffb9b9"/><path d="M859.06958,574.85863l18,43,43-18s-14-34-14-35S859.06958,574.85863,859.06958,574.85863Z" transform="translate(-23.45581 -34.85863)" fill="#ffb9b9"/><path d="M977.47955,702.06859a224.07967,224.07967,0,0,1-10.99,69.31l-2.92,8.98-14,64-15,4-11-14-22-16-16-26-13.72-22.86-4.28-7.14-15-75-57-32-19-3,4-11,17-23,17-2,5-4,4,2,16-9,5,2,29.24,2.72,17.76-3.72,25.54-13.71,10.46,1.71,36,30A223.883,223.883,0,0,1,977.47955,702.06859Z" transform="translate(-23.45581 -34.85863)" fill="#575a89"/><path d="M556.77841,808.84314s8.95672-15.1802,5.1736-16.95245-19.84944-8.83742-19.84944-8.83742l-23.561-7.80812s-33.99706-50.52658-34.7433-6.58794,24.754,54.50058,24.754,54.50058,22.74316,48.94521,35.62616,41.14036,25.77439-34.29908,25.77439-34.29908S546.72082,817.51025,556.77841,808.84314Z" transform="translate(-23.45581 -34.85863)" fill="#2f2e41"/><polygon points="943.114 658.5 905.114 683.5 848.394 734.64 844.114 727.5 832.114 667.5 835.114 667.5 866.114 610.5 943.114 658.5" opacity="0.1"/><polygon points="866.114 604.5 835.114 661.5 824.114 661.5 817.114 681.5 801.114 685.5 844.114 732.5 905.114 677.5 943.114 652.5 866.114 604.5" fill="#575a89"/><path d="M846.23553,517.36044,842.01,518.98622a5.89887,5.89887,0,0,1-1.508-8.292l-7.80871-.36541a58.965,58.965,0,0,1,88.02685-7.09517c.35552-1.22442,4.23105,1.15782,5.8133,3.57335.53165-1.99246,4.16545,7.63918,5.4507,14.44745.595-2.26687,2.88291,1.39269.87853,4.9042,1.27-.18555,1.84363,3.0637.86049,4.87388,1.38932-.65272,1.15517,3.22594-.35123,5.818,1.98254-.17615-15.63561,27.16738-22.76891,43.14727-2.07127-9.51695-4.40015-19.53847-11.079-26.62758-1.13524-1.205-2.37842-2.3025-3.61958-3.39808l-6.713-5.92559c-7.80593-6.89033-14.90676-15.39442-25.3056-17.96964-7.14637-1.76976-11.665-2.16933-7.77042-10.2221-3.51866,1.46835-6.80449,3.65195-10.35469,5.01575C845.80842,519.74536,846.30459,518.48624,846.23553,517.36044Z" transform="translate(-23.45581 -34.85863)" fill="#2f2e41"/><circle cx="872.61377" cy="516" r="7" fill="#ffb9b9"/></svg>